<svg xmlns="http://www.w3.org/2000/svg" viewBox="0 0 563.32 210.45"><defs><style>.cls-1{fill:#0093ff;}.cls-2{fill:#fff;}.cls-3{fill:#007fde;}.cls-4{fill:#e5e5e5;}.cls-5{fill:#55cdff;}</style></defs><g id="Layer_2" data-name="Layer 2"><g id="Layer_1-2" data-name="Layer 1"><rect class="cls-1" width="563.32" height="210.45" rx="14.26"/><path class="cls-2" d="M35,38.94H33.65V28.7H30V27.52h8.56V28.7H35Z"/><path class="cls-2" d="M43.91,30.22a5.23,5.23,0,0,1,1,.09l-.18,1.21a4.24,4.24,0,0,0-.94-.12,2.27,2.27,0,0,0-1.77.84,3.12,3.12,0,0,0-.74,2.11v4.59H40V30.38h1.07L41.22,32h.06a3.92,3.92,0,0,1,1.15-1.29A2.61,2.61,0,0,1,43.91,30.22Z"/><path class="cls-2" d="M51.69,38.94l-.26-1.22h-.06a3.55,3.55,0,0,1-1.28,1.09,3.86,3.86,0,0,1-1.59.29,2.87,2.87,0,0,1-2-.66,2.4,2.4,0,0,1-.72-1.87c0-1.73,1.38-2.63,4.15-2.72l1.45,0v-.54A2.15,2.15,0,0,0,51,31.79a1.79,1.79,0,0,0-1.39-.48,5.6,5.6,0,0,0-2.42.65l-.4-1a6.09,6.09,0,0,1,1.39-.54,6,6,0,0,1,1.51-.19,3.23,3.23,0,0,1,2.27.68,2.84,2.84,0,0,1,.74,2.18v5.84ZM48.76,38a2.63,2.63,0,0,0,1.9-.66,2.45,2.45,0,0,0,.69-1.86v-.77l-1.29.05a4.84,4.84,0,0,0-2.24.48,1.47,1.47,0,0,0-.68,1.33,1.32,1.32,0,0,0,.43,1.07A1.78,1.78,0,0,0,48.76,38Z"/><path class="cls-2" d="M58,38a3.71,3.71,0,0,0,.67-.05,3.53,3.53,0,0,0,.51-.1v1a2.5,2.5,0,0,1-.63.17,5.11,5.11,0,0,1-.73.07c-1.66,0-2.49-.88-2.49-2.62v-5.1H54.08v-.62l1.22-.54.55-1.83h.75v2h2.48v1H56.6v5A1.71,1.71,0,0,0,57,37.61,1.25,1.25,0,0,0,58,38Z"/><path class="cls-2" d="M66,38.94l-.26-1.22h-.06a3.55,3.55,0,0,1-1.28,1.09,3.86,3.86,0,0,1-1.59.29,2.83,2.83,0,0,1-2-.66,2.41,2.41,0,0,1-.73-1.87c0-1.73,1.39-2.63,4.15-2.72l1.46,0v-.54a2.15,2.15,0,0,0-.44-1.48,1.78,1.78,0,0,0-1.38-.48,5.6,5.6,0,0,0-2.43.65l-.4-1a6.27,6.27,0,0,1,1.39-.54A6,6,0,0,1,64,30.24a3.23,3.23,0,0,1,2.27.68A2.8,2.8,0,0,1,67,33.1v5.84ZM63.08,38a2.63,2.63,0,0,0,1.9-.66,2.45,2.45,0,0,0,.69-1.86v-.77l-1.29.05a4.79,4.79,0,0,0-2.23.48,1.46,1.46,0,0,0-.69,1.33,1.32,1.32,0,0,0,.43,1.07A1.78,1.78,0,0,0,63.08,38Z"/><path class="cls-2" d="M80.45,38.94V33.37A2.34,2.34,0,0,0,80,31.83a1.7,1.7,0,0,0-1.36-.51,2.18,2.18,0,0,0-1.79.7,3.26,3.26,0,0,0-.58,2.14v4.78H75V33.37a2.34,2.34,0,0,0-.43-1.54,1.71,1.71,0,0,0-1.37-.51,2.15,2.15,0,0,0-1.79.73,4,4,0,0,0-.56,2.4v4.49h-1.3V30.38h1.06l.21,1.17h.06a2.56,2.56,0,0,1,1-1,3.25,3.25,0,0,1,1.5-.35A2.55,2.55,0,0,1,76,31.67h.06a2.71,2.71,0,0,1,1.11-1.06,3.41,3.41,0,0,1,1.65-.39A2.9,2.9,0,0,1,81,31a3.32,3.32,0,0,1,.72,2.38v5.59Z"/><path class="cls-2" d="M84.19,28.06a.9.9,0,0,1,.22-.66.81.81,0,0,1,.55-.2.76.76,0,0,1,.54.21.84.84,0,0,1,.22.65.85.85,0,0,1-.22.65.81.81,0,0,1-1.09,0A.89.89,0,0,1,84.19,28.06ZM85.6,38.94H84.3V30.38h1.3Z"/><path class="cls-2" d="M91.85,39.1a3.93,3.93,0,0,1-3-1.16,4.48,4.48,0,0,1-1.1-3.21,5,5,0,0,1,1-3.29,3.39,3.39,0,0,1,2.74-1.22,3.2,3.2,0,0,1,2.54,1.06A4,4,0,0,1,95,34.07v.82H89.1a3.37,3.37,0,0,0,.77,2.29,2.63,2.63,0,0,0,2,.78,6.89,6.89,0,0,0,2.74-.58v1.16a7.13,7.13,0,0,1-1.31.43A7.67,7.67,0,0,1,91.85,39.1Zm-.35-7.79a2.1,2.1,0,0,0-1.64.67,3.08,3.08,0,0,0-.72,1.86h4.47A2.81,2.81,0,0,0,93.06,32,1.89,1.89,0,0,0,91.5,31.31Z"/><path class="cls-2" d="M103,38.94V33.4a2.21,2.21,0,0,0-.48-1.56,1.9,1.9,0,0,0-1.49-.52,2.46,2.46,0,0,0-2,.73,3.7,3.7,0,0,0-.62,2.4v4.49H97.1V30.38h1.06l.21,1.17h.06a2.62,2.62,0,0,1,1.12-1,3.65,3.65,0,0,1,1.6-.35,3.25,3.25,0,0,1,2.33.75,3.16,3.16,0,0,1,.78,2.38v5.59Z"/><path class="cls-2" d="M109.58,38a5,5,0,0,0,1.17-.15v1a2.53,2.53,0,0,1-.62.17,5.37,5.37,0,0,1-.74.07c-1.66,0-2.49-.88-2.49-2.62v-5.1h-1.22v-.62l1.22-.54.55-1.83h.75v2h2.49v1H108.2v5a1.71,1.71,0,0,0,.37,1.19A1.26,1.26,0,0,0,109.58,38Z"/><path class="cls-2" d="M119.74,34.65a4.68,4.68,0,0,1-1.06,3.27,3.72,3.72,0,0,1-2.91,1.18,3.84,3.84,0,0,1-2-.54A3.66,3.66,0,0,1,112.35,37a5.43,5.43,0,0,1-.48-2.36,4.7,4.7,0,0,1,1-3.26,3.67,3.67,0,0,1,2.9-1.17,3.63,3.63,0,0,1,2.86,1.2A4.71,4.71,0,0,1,119.74,34.65Zm-6.53,0a4,4,0,0,0,.66,2.5,2.6,2.6,0,0,0,3.86,0,4,4,0,0,0,.66-2.5,4,4,0,0,0-.66-2.48,2.31,2.31,0,0,0-2-.85,2.28,2.28,0,0,0-1.92.84A4,4,0,0,0,113.21,34.65Z"/><path class="cls-2" d="M121.71,31.21c0-.7.31-1.05.92-1.05s1,.35,1,1.05a1.09,1.09,0,0,1-.25.78A1,1,0,0,1,122,32,1.08,1.08,0,0,1,121.71,31.21Zm0,6.9a1.15,1.15,0,0,1,.24-.79.87.87,0,0,1,.68-.27.93.93,0,0,1,.71.27,1.36,1.36,0,0,1,0,1.57,1,1,0,0,1-.71.28,1,1,0,0,1-.66-.25A1.08,1.08,0,0,1,121.71,38.11Z"/><path class="cls-2" d="M37.92,88.14H34.59V75.21H30.33V72.43H42.19v2.78H37.92Z"/><path class="cls-2" d="M44.21,73c0-1.06.59-1.6,1.78-1.6s1.78.54,1.78,1.6a1.55,1.55,0,0,1-.44,1.19,1.89,1.89,0,0,1-1.34.43C44.8,74.64,44.21,74.1,44.21,73Zm3.41,15.12H44.35v-12h3.27Z"/><path class="cls-2" d="M56.12,85.74a7.08,7.08,0,0,0,2.06-.37v2.44a7.42,7.42,0,0,1-3,.54,3.7,3.7,0,0,1-2.87-1,4.32,4.32,0,0,1-.89-3V78.59H49.85V77.2l1.8-1.09,1-2.54h2.09v2.56h3.36v2.46H54.69v5.79a1.28,1.28,0,0,0,.39,1A1.58,1.58,0,0,0,56.12,85.74Z"/><path class="cls-2" d="M69.12,88.14l-.44-1.54h-.17A3.48,3.48,0,0,1,67,87.9a5.15,5.15,0,0,1-2.2.45,4.18,4.18,0,0,1-3.19-1.13A4.54,4.54,0,0,1,60.55,84V76.13h3.27v7a3.42,3.42,0,0,0,.46,2,1.67,1.67,0,0,0,1.48.65,2.18,2.18,0,0,0,2-.92,5.64,5.64,0,0,0,.62-3V76.13h3.27v12Z"/><path class="cls-2" d="M78.35,88.14H75.07V71.42h3.28Z"/><path class="cls-2" d="M89.41,88.14l-.63-1.63h-.09A4.9,4.9,0,0,1,87,88a5.52,5.52,0,0,1-2.28.4,3.72,3.72,0,0,1-2.73-1,3.81,3.81,0,0,1-1-2.82,3.16,3.16,0,0,1,1.34-2.82,7.73,7.73,0,0,1,4-1l2.08-.07v-.52a1.63,1.63,0,0,0-1.87-1.83,8.52,8.52,0,0,0-3.38.87L82.11,77a9.66,9.66,0,0,1,4.59-1.09,5.75,5.75,0,0,1,3.71,1.05,3.91,3.91,0,0,1,1.29,3.21v8Zm-1-5.57-1.26.05a4.13,4.13,0,0,0-2.13.51,1.62,1.62,0,0,0-.7,1.44c0,.93.53,1.39,1.59,1.39a2.5,2.5,0,0,0,1.82-.66,2.26,2.26,0,0,0,.68-1.74Z"/><path class="cls-2" d="M101.77,75.9a5.54,5.54,0,0,1,1.11.1l-.25,3.07a3.73,3.73,0,0,0-1-.11,3.48,3.48,0,0,0-2.45.81A2.93,2.93,0,0,0,98.35,82v6.11H95.07v-12h2.48l.49,2h.16a4.46,4.46,0,0,1,1.51-1.63A3.72,3.72,0,0,1,101.77,75.9Z"/><path class="cls-2" d="M114.05,88.14h-3.27V71.42h3.27Z"/><path class="cls-2" d="M125.12,88.14l-.64-1.63h-.08A4.9,4.9,0,0,1,122.7,88a5.53,5.53,0,0,1-2.29.4,3.72,3.72,0,0,1-2.72-1,3.81,3.81,0,0,1-1-2.82A3.18,3.18,0,0,1,118,81.73a7.77,7.77,0,0,1,4-1l2.08-.07v-.52a1.63,1.63,0,0,0-1.87-1.83,8.48,8.48,0,0,0-3.38.87L117.81,77a9.7,9.7,0,0,1,4.6-1.09,5.75,5.75,0,0,1,3.71,1.05,3.91,3.91,0,0,1,1.29,3.21v8Zm-1-5.57-1.27.05a4.09,4.09,0,0,0-2.12.51,1.62,1.62,0,0,0-.7,1.44c0,.93.53,1.39,1.59,1.39a2.51,2.51,0,0,0,1.82-.66,2.3,2.3,0,0,0,.68-1.74Z"/><path class="cls-2" d="M140.3,88.35A3.9,3.9,0,0,1,137,86.71a7.59,7.59,0,0,1-1.21-4.55A7.59,7.59,0,0,1,137,77.55a4,4,0,0,1,3.39-1.65,3.91,3.91,0,0,1,3.46,1.77H144a13.05,13.05,0,0,1-.25-2.4V71.42H147V88.14h-2.51l-.64-1.56h-.14A3.74,3.74,0,0,1,140.3,88.35Zm1.15-2.61a2.22,2.22,0,0,0,1.84-.73,4.25,4.25,0,0,0,.64-2.48v-.35a4.86,4.86,0,0,0-.6-2.77,2.21,2.21,0,0,0-1.94-.84,1.91,1.91,0,0,0-1.7.93,4.91,4.91,0,0,0-.61,2.7,4.77,4.77,0,0,0,.61,2.66A2,2,0,0,0,141.45,85.74Z"/><path class="cls-2" d="M161.33,82.11a6.46,6.46,0,0,1-1.55,4.59,5.6,5.6,0,0,1-4.3,1.65,6.11,6.11,0,0,1-3.06-.75,5.1,5.1,0,0,1-2-2.18,7.34,7.34,0,0,1-.7-3.31,6.42,6.42,0,0,1,1.53-4.57,5.66,5.66,0,0,1,4.32-1.64,6,6,0,0,1,3.05.76,5,5,0,0,1,2,2.15A7.29,7.29,0,0,1,161.33,82.11Zm-8.3,0a5.06,5.06,0,0,0,.58,2.7,2.1,2.1,0,0,0,1.91.91,2,2,0,0,0,1.88-.91,6.5,6.5,0,0,0,0-5.37,2.47,2.47,0,0,0-3.79,0A4.94,4.94,0,0,0,153,82.11Z"/><path class="cls-2" d="M172.42,84.57a3.32,3.32,0,0,1-1.29,2.82,6.35,6.35,0,0,1-3.84,1,12.81,12.81,0,0,1-2.23-.17,9,9,0,0,1-1.73-.52V85a12.57,12.57,0,0,0,2,.72,8.6,8.6,0,0,0,2,.29c1.19,0,1.78-.35,1.78-1a.89.89,0,0,0-.23-.63,3.35,3.35,0,0,0-.82-.55c-.39-.2-.9-.44-1.55-.71a9.76,9.76,0,0,1-2-1.08,3,3,0,0,1-1-1.13,3.72,3.72,0,0,1-.29-1.58,2.84,2.84,0,0,1,1.24-2.47,6,6,0,0,1,3.51-.88,10,10,0,0,1,4.23.95l-1,2.36a16.47,16.47,0,0,0-1.69-.63,5.1,5.1,0,0,0-1.6-.25c-1,0-1.45.26-1.45.79a.94.94,0,0,0,.47.76,13,13,0,0,0,2,1,9.59,9.59,0,0,1,2.07,1.07,3.12,3.12,0,0,1,1,1.14A3.45,3.45,0,0,1,172.42,84.57Z"/><path class="cls-2" d="M174.83,73c0-1.06.6-1.6,1.79-1.6s1.78.54,1.78,1.6a1.55,1.55,0,0,1-.45,1.19,1.86,1.86,0,0,1-1.33.43C175.43,74.64,174.83,74.1,174.83,73Zm3.42,15.12H175v-12h3.28Z"/><path class="cls-2" d="M190.06,84.57a3.31,3.31,0,0,1-1.28,2.82,6.37,6.37,0,0,1-3.84,1,12.81,12.81,0,0,1-2.23-.17,9,9,0,0,1-1.73-.52V85a12.57,12.57,0,0,0,2.05.72,8.6,8.6,0,0,0,2,.29c1.19,0,1.78-.35,1.78-1a.89.89,0,0,0-.23-.63,3.35,3.35,0,0,0-.82-.55c-.39-.2-.9-.44-1.55-.71a9.76,9.76,0,0,1-2-1.08,3,3,0,0,1-.95-1.13,3.72,3.72,0,0,1-.29-1.58,2.84,2.84,0,0,1,1.24-2.47,6,6,0,0,1,3.51-.88,10,10,0,0,1,4.23.95l-1,2.36a16.47,16.47,0,0,0-1.69-.63,5.14,5.14,0,0,0-1.6-.25c-1,0-1.45.26-1.45.79a.94.94,0,0,0,.47.76,13,13,0,0,0,2,1,9.59,9.59,0,0,1,2.07,1.07,3.12,3.12,0,0,1,1,1.14A3.45,3.45,0,0,1,190.06,84.57Z"/><path class="cls-2" d="M202.14,88.35a3.9,3.9,0,0,1-3.33-1.64,7.59,7.59,0,0,1-1.2-4.55,7.59,7.59,0,0,1,1.23-4.61,4,4,0,0,1,3.39-1.65,3.89,3.89,0,0,1,3.45,1.77h.11a14,14,0,0,1-.25-2.4V71.42h3.29V88.14h-2.51l-.64-1.56h-.14A3.74,3.74,0,0,1,202.14,88.35Zm1.15-2.61a2.2,2.2,0,0,0,1.84-.73,4.25,4.25,0,0,0,.64-2.48v-.35a4.86,4.86,0,0,0-.6-2.77,2.2,2.2,0,0,0-1.94-.84,1.93,1.93,0,0,0-1.7.93,5,5,0,0,0-.6,2.7,4.69,4.69,0,0,0,.61,2.66A2,2,0,0,0,203.29,85.74Z"/><path class="cls-2" d="M217.69,88.35a6.19,6.19,0,0,1-4.53-1.6,6,6,0,0,1-1.63-4.53A6.66,6.66,0,0,1,213,77.55a5.35,5.35,0,0,1,4.17-1.65,5.29,5.29,0,0,1,4,1.45,5.49,5.49,0,0,1,1.42,4V83h-7.74a3.14,3.14,0,0,0,.82,2.18,2.93,2.93,0,0,0,2.17.79,9.09,9.09,0,0,0,2.06-.23,10.5,10.5,0,0,0,2-.72V87.5a7.71,7.71,0,0,1-1.84.64A11.58,11.58,0,0,1,217.69,88.35Zm-.46-10.12a2,2,0,0,0-1.63.67,3.08,3.08,0,0,0-.68,1.87h4.6a2.73,2.73,0,0,0-.63-1.87A2.13,2.13,0,0,0,217.23,78.23Z"/><path class="cls-2" d="M247.44,88.14h-3.28v-7a3.57,3.57,0,0,0-.43-2,1.54,1.54,0,0,0-1.37-.65,2,2,0,0,0-1.83.93,6,6,0,0,0-.57,3v5.65h-3.27v-12h2.5l.44,1.54h.18a3.27,3.27,0,0,1,1.4-1.3,4.56,4.56,0,0,1,2.09-.47q2.7,0,3.66,1.77h.29a3.15,3.15,0,0,1,1.42-1.3,4.72,4.72,0,0,1,2.12-.47,4.19,4.19,0,0,1,3.09,1,4.6,4.6,0,0,1,1.05,3.36v7.83h-3.29v-7a3.56,3.56,0,0,0-.44-2,1.53,1.53,0,0,0-1.37-.65,2,2,0,0,0-1.79.86,4.89,4.89,0,0,0-.6,2.73Z"/><path class="cls-2" d="M263.72,88.35a6.19,6.19,0,0,1-4.53-1.6,6,6,0,0,1-1.63-4.53,6.66,6.66,0,0,1,1.51-4.67,5.35,5.35,0,0,1,4.17-1.65,5.29,5.29,0,0,1,4,1.45,5.49,5.49,0,0,1,1.42,4V83h-7.74a3.14,3.14,0,0,0,.82,2.18,2.93,2.93,0,0,0,2.17.79,9.09,9.09,0,0,0,2.06-.23,10.5,10.5,0,0,0,2-.72V87.5a7.71,7.71,0,0,1-1.84.64A11.58,11.58,0,0,1,263.72,88.35Zm-.46-10.12a2,2,0,0,0-1.63.67,3.08,3.08,0,0,0-.68,1.87h4.6a2.73,2.73,0,0,0-.63-1.87A2.13,2.13,0,0,0,263.26,78.23Z"/><path class="cls-2" d="M276.35,85.74a7.08,7.08,0,0,0,2.06-.37v2.44a7.47,7.47,0,0,1-3,.54,3.69,3.69,0,0,1-2.86-1,4.32,4.32,0,0,1-.9-3V78.59h-1.57V77.2l1.81-1.09.94-2.54h2.1v2.56h3.36v2.46h-3.36v5.79a1.28,1.28,0,0,0,.39,1A1.56,1.56,0,0,0,276.35,85.74Z"/><path class="cls-2" d="M287.48,78.59h-2.84v9.55h-3.28V78.59h-1.8V77l1.8-.88v-.88a4,4,0,0,1,1-3,4.65,4.65,0,0,1,3.24-.94,8.3,8.3,0,0,1,3,.5l-.83,2.41a6.05,6.05,0,0,0-1.83-.31,1.17,1.17,0,0,0-1,.41,1.69,1.69,0,0,0-.31,1.06v.75h2.84Z"/><path class="cls-2" d="M300.27,82.11a6.46,6.46,0,0,1-1.55,4.59,5.61,5.61,0,0,1-4.31,1.65,6.08,6.08,0,0,1-3.05-.75,5.1,5.1,0,0,1-2-2.18,7.34,7.34,0,0,1-.71-3.31,6.43,6.43,0,0,1,1.54-4.57,5.64,5.64,0,0,1,4.32-1.64,6,6,0,0,1,3,.76,5,5,0,0,1,2,2.15A7.29,7.29,0,0,1,300.27,82.11Zm-8.3,0a5.06,5.06,0,0,0,.58,2.7,2.1,2.1,0,0,0,1.91.91,2,2,0,0,0,1.88-.91,6.5,6.5,0,0,0,0-5.37,2.47,2.47,0,0,0-3.79,0A4.94,4.94,0,0,0,292,82.11Z"/><path class="cls-2" d="M309.68,75.9a5.69,5.69,0,0,1,1.11.1l-.25,3.07a3.87,3.87,0,0,0-1-.11,3.46,3.46,0,0,0-2.44.81,2.9,2.9,0,0,0-.88,2.26v6.11H303v-12h2.48l.48,2h.16a4.55,4.55,0,0,1,1.51-1.63A3.75,3.75,0,0,1,309.68,75.9Z"/><path class="cls-2" d="M323.72,88.14h-3.28v-7a3.57,3.57,0,0,0-.43-2,1.54,1.54,0,0,0-1.37-.65,2,2,0,0,0-1.83.93,6,6,0,0,0-.57,3v5.65H313v-12h2.5l.44,1.54h.18a3.27,3.27,0,0,1,1.4-1.3,4.56,4.56,0,0,1,2.09-.47q2.7,0,3.66,1.77h.29a3.15,3.15,0,0,1,1.42-1.3,4.72,4.72,0,0,1,2.12-.47,4.19,4.19,0,0,1,3.09,1,4.6,4.6,0,0,1,1,3.36v7.83h-3.29v-7a3.56,3.56,0,0,0-.44-2,1.53,1.53,0,0,0-1.37-.65,2,2,0,0,0-1.79.86,4.89,4.89,0,0,0-.6,2.73Z"/><path class="cls-2" d="M334.43,73c0-1.06.59-1.6,1.78-1.6S338,72,338,73a1.55,1.55,0,0,1-.45,1.19,1.89,1.89,0,0,1-1.34.43C335,74.64,334.43,74.1,334.43,73Zm3.42,15.12h-3.28v-12h3.28Z"/><path class="cls-2" d="M352.37,88.14h-3.28v-7a3.38,3.38,0,0,0-.46-2,1.69,1.69,0,0,0-1.47-.65,2.22,2.22,0,0,0-2,.92,5.71,5.71,0,0,0-.61,3v5.65h-3.28v-12h2.51l.44,1.54h.18a3.41,3.41,0,0,1,1.51-1.32,5.09,5.09,0,0,1,2.18-.45A4.18,4.18,0,0,1,351.28,77a4.5,4.5,0,0,1,1.09,3.27Z"/><path class="cls-2" d="M363.37,88.14l-.64-1.63h-.08A4.9,4.9,0,0,1,361,88a5.53,5.53,0,0,1-2.29.4,3.72,3.72,0,0,1-2.72-1,3.81,3.81,0,0,1-1-2.82,3.18,3.18,0,0,1,1.33-2.82,7.8,7.8,0,0,1,4-1l2.08-.07v-.52a1.63,1.63,0,0,0-1.87-1.83,8.48,8.48,0,0,0-3.38.87L356.06,77a9.73,9.73,0,0,1,4.6-1.09,5.75,5.75,0,0,1,3.71,1.05,3.91,3.91,0,0,1,1.29,3.21v8Zm-1-5.57-1.27.05a4.09,4.09,0,0,0-2.12.51,1.62,1.62,0,0,0-.7,1.44c0,.93.53,1.39,1.59,1.39a2.5,2.5,0,0,0,1.82-.66,2.3,2.3,0,0,0,.68-1.74Z"/><path class="cls-2" d="M30.83,112.73l7.35-3-7.35-3.42v-2.57l10.67,5.32v1.55l-10.67,4.7Zm0,5.41v-2.35H41.5v2.35Z"/><path class="cls-2" d="M57.25,118.14H53.93v-9.09l0-1.49.06-1.63c-.56.55-.94.91-1.15,1.08l-1.81,1.45-1.6-2,5.06-4h2.73Z"/><path class="cls-2" d="M65.65,115.83A33,33,0,0,1,63.76,121H61.39q.7-2.87,1.09-5.4h3Z"/><path class="cls-2" d="M73.69,108.11a5.07,5.07,0,0,1,3.63,1.27,4.61,4.61,0,0,1,1.35,3.51,5.11,5.11,0,0,1-1.62,4,6.86,6.86,0,0,1-4.64,1.41,9.21,9.21,0,0,1-4.24-.84v-2.87a9,9,0,0,0,2,.73,8.71,8.71,0,0,0,2.14.29c2,0,3-.83,3-2.49s-1-2.38-3.15-2.38a8.48,8.48,0,0,0-1.26.11,9.06,9.06,0,0,0-1.11.25l-1.33-.71.6-8h8.51v2.82H72l-.29,3.08.37-.07A7.44,7.44,0,0,1,73.69,108.11Z"/><path class="cls-2" d="M91.43,110.29q0,4.11-1.35,6.09a4.69,4.69,0,0,1-4.15,2,4.63,4.63,0,0,1-4.1-2,10.78,10.78,0,0,1-1.38-6c0-2.77.45-4.82,1.34-6.13a5.23,5.23,0,0,1,8.25.09A10.79,10.79,0,0,1,91.43,110.29Zm-7.68,0a12.34,12.34,0,0,0,.5,4.14,1.73,1.73,0,0,0,1.68,1.25,1.76,1.76,0,0,0,1.68-1.27,12,12,0,0,0,.51-4.12,11.76,11.76,0,0,0-.52-4.15,1.74,1.74,0,0,0-3.35,0A12.36,12.36,0,0,0,83.75,110.29Z"/><path class="cls-2" d="M104,110.29q0,4.11-1.35,6.09a4.69,4.69,0,0,1-4.15,2,4.63,4.63,0,0,1-4.1-2,10.78,10.78,0,0,1-1.38-6c0-2.77.45-4.82,1.34-6.13a5.23,5.23,0,0,1,8.25.09A10.88,10.88,0,0,1,104,110.29Zm-7.68,0a12.08,12.08,0,0,0,.5,4.14,1.74,1.74,0,0,0,3.35,0,11.68,11.68,0,0,0,.52-4.12,11.76,11.76,0,0,0-.52-4.15,1.74,1.74,0,0,0-3.35,0A12.36,12.36,0,0,0,96.31,110.29Z"/><path class="cls-2" d="M123,118.14h-3.28v-7a3.57,3.57,0,0,0-.43-2,1.54,1.54,0,0,0-1.37-.65,2,2,0,0,0-1.83.93,6,6,0,0,0-.57,3v5.65h-3.27v-12h2.5l.44,1.54h.18a3.27,3.27,0,0,1,1.4-1.3,4.53,4.53,0,0,1,2.09-.47q2.7,0,3.66,1.77h.29a3.15,3.15,0,0,1,1.42-1.3,4.69,4.69,0,0,1,2.12-.47,4.19,4.19,0,0,1,3.09,1,4.6,4.6,0,0,1,1,3.36v7.83h-3.29v-7a3.56,3.56,0,0,0-.44-2,1.53,1.53,0,0,0-1.37-.65,2,2,0,0,0-1.79.86,4.89,4.89,0,0,0-.6,2.73Z"/><path class="cls-2" d="M144.26,106.13v1.66l-1.88.49a3.29,3.29,0,0,1,.52,1.8,3.65,3.65,0,0,1-1.35,3,5.91,5.91,0,0,1-3.75,1.08l-.59,0-.48,0a1.07,1.07,0,0,0-.5.86c0,.47.6.71,1.8.71h2a4.62,4.62,0,0,1,3,.85,3,3,0,0,1,1,2.49,3.69,3.69,0,0,1-1.76,3.26,9.08,9.08,0,0,1-5,1.16,7,7,0,0,1-3.84-.87,2.79,2.79,0,0,1-1.33-2.46,2.57,2.57,0,0,1,.68-1.81,3.75,3.75,0,0,1,2-1,2.2,2.2,0,0,1-.88-.71,1.66,1.66,0,0,1-.38-1,1.68,1.68,0,0,1,.4-1.15,4.54,4.54,0,0,1,1.15-.89,3.29,3.29,0,0,1-1.5-1.31,4,4,0,0,1-.55-2.13,3.74,3.74,0,0,1,1.27-3A5.53,5.53,0,0,1,138,105.9a9.71,9.71,0,0,1,1.2.09l.88.14ZM135,119.84a1.19,1.19,0,0,0,.65,1.06,3.54,3.54,0,0,0,1.82.39,6.29,6.29,0,0,0,2.76-.49,1.46,1.46,0,0,0,1-1.32.93.93,0,0,0-.59-.93,4.85,4.85,0,0,0-1.83-.26h-1.69a2.56,2.56,0,0,0-1.51.42A1.31,1.31,0,0,0,135,119.84Zm1.19-9.78a2.44,2.44,0,0,0,.45,1.55,1.62,1.62,0,0,0,1.36.57,1.59,1.59,0,0,0,1.35-.57,2.5,2.5,0,0,0,.43-1.55c0-1.45-.59-2.17-1.78-2.17S136.18,108.61,136.18,110.06Z"/><path class="cls-2" d="M153.5,102.43l-5.86,15.71h-3l5.85-15.71Z"/><path class="cls-2" d="M159.13,118.35a3.9,3.9,0,0,1-3.33-1.64,9.21,9.21,0,0,1,0-9.16,4,4,0,0,1,3.39-1.65,3.91,3.91,0,0,1,3.46,1.77h.11a13.05,13.05,0,0,1-.25-2.4v-3.85h3.29v16.72h-2.51l-.64-1.56h-.14A3.74,3.74,0,0,1,159.13,118.35Zm1.15-2.61a2.22,2.22,0,0,0,1.84-.73,4.25,4.25,0,0,0,.64-2.48v-.35a4.86,4.86,0,0,0-.6-2.77,2.21,2.21,0,0,0-1.94-.84,1.93,1.93,0,0,0-1.7.93,5,5,0,0,0-.61,2.7,4.69,4.69,0,0,0,.62,2.66A2,2,0,0,0,160.28,115.74Z"/><path class="cls-2" d="M169.09,104.81v-.29a29.17,29.17,0,0,0,2.52-3.24h3.67v.23c-.37.37-1,.93-1.9,1.66s-1.61,1.28-2.11,1.64Zm3.43,13.33h-3.27v-12h3.27Z"/><path class="cls-2" d="M183.59,118.14l-.64-1.63h-.08a4.9,4.9,0,0,1-1.7,1.44,5.53,5.53,0,0,1-2.29.4,3.72,3.72,0,0,1-2.72-1,3.81,3.81,0,0,1-1-2.82,3.18,3.18,0,0,1,1.33-2.82,7.77,7.77,0,0,1,4-1l2.08-.07v-.52a1.63,1.63,0,0,0-1.87-1.83,8.48,8.48,0,0,0-3.38.87L176.28,107a9.7,9.7,0,0,1,4.6-1.09,5.7,5.7,0,0,1,3.71,1.06,3.87,3.87,0,0,1,1.29,3.2v8Zm-1-5.57-1.27.05a4.09,4.09,0,0,0-2.12.51,1.62,1.62,0,0,0-.7,1.44c0,.93.53,1.39,1.59,1.39a2.51,2.51,0,0,0,1.82-.66,2.3,2.3,0,0,0,.68-1.74Z"/><path class="cls-2" d="M37.83,160.34H31.46V148.92h6.37v1.18h-5v3.68h4.73V155H32.79v4.2h5Z"/><path class="cls-2" d="M46,160.34V154.8a2.21,2.21,0,0,0-.48-1.56,1.9,1.9,0,0,0-1.49-.52,2.46,2.46,0,0,0-2,.73,3.7,3.7,0,0,0-.62,2.4v4.49h-1.3v-8.56h1.06l.21,1.17h.06a2.68,2.68,0,0,1,1.12-1,3.65,3.65,0,0,1,1.6-.35,3.25,3.25,0,0,1,2.33.75,3.16,3.16,0,0,1,.78,2.38v5.59Z"/><path class="cls-2" d="M57.56,160.49a3.66,3.66,0,0,1-2.88-1.14,4.7,4.7,0,0,1-1-3.24,4.86,4.86,0,0,1,1-3.32,3.73,3.73,0,0,1,2.95-1.17,5.71,5.71,0,0,1,1.23.13,4.26,4.26,0,0,1,1,.31l-.4,1.11a6.1,6.1,0,0,0-.94-.29,4.49,4.49,0,0,0-.9-.11c-1.73,0-2.6,1.11-2.6,3.33a4,4,0,0,0,.63,2.42,2.24,2.24,0,0,0,1.89.84,5.7,5.7,0,0,0,2.19-.46v1.15A4.62,4.62,0,0,1,57.56,160.49Z"/><path class="cls-2" d="M67,160.34l-.26-1.22H66.7a3.55,3.55,0,0,1-1.28,1.09,3.87,3.87,0,0,1-1.59.28,2.82,2.82,0,0,1-2-.65,2.41,2.41,0,0,1-.73-1.87c0-1.73,1.39-2.63,4.15-2.72l1.46,0v-.54a2.15,2.15,0,0,0-.44-1.48,1.78,1.78,0,0,0-1.38-.48,5.64,5.64,0,0,0-2.43.65l-.39-1a6.08,6.08,0,0,1,2.89-.73,3.28,3.28,0,0,1,2.27.67,2.82,2.82,0,0,1,.74,2.18v5.85Zm-2.93-.92a2.63,2.63,0,0,0,1.9-.66,2.46,2.46,0,0,0,.7-1.86v-.77l-1.3.05a4.79,4.79,0,0,0-2.23.48,1.46,1.46,0,0,0-.69,1.33,1.36,1.36,0,0,0,.43,1.07A1.78,1.78,0,0,0,64.09,159.42Z"/><path class="cls-2" d="M76.18,158a2.17,2.17,0,0,1-.89,1.85,4.22,4.22,0,0,1-2.5.64,5.57,5.57,0,0,1-2.66-.53v-1.21a6.3,6.3,0,0,0,1.32.49,5.61,5.61,0,0,0,1.37.18,3.05,3.05,0,0,0,1.56-.32,1.09,1.09,0,0,0,.55-1,1.06,1.06,0,0,0-.44-.85,6.59,6.59,0,0,0-1.69-.84,9.85,9.85,0,0,1-1.7-.78,2.43,2.43,0,0,1-.75-.75,2,2,0,0,1-.24-1,1.9,1.9,0,0,1,.85-1.65,3.93,3.93,0,0,1,2.33-.61,6.92,6.92,0,0,1,2.71.56l-.46,1.06a6.1,6.1,0,0,0-2.34-.53,2.73,2.73,0,0,0-1.39.28.91.91,0,0,0-.47.8,1,1,0,0,0,.18.59,1.7,1.7,0,0,0,.56.46,14.73,14.73,0,0,0,1.5.63,5.45,5.45,0,0,1,2.06,1.12A2,2,0,0,1,76.18,158Z"/><path class="cls-2" d="M85.68,156.05a4.71,4.71,0,0,1-1.06,3.27,3.71,3.71,0,0,1-2.91,1.17,3.92,3.92,0,0,1-2-.53,3.66,3.66,0,0,1-1.38-1.55,5.43,5.43,0,0,1-.48-2.36,4.7,4.7,0,0,1,1-3.26,4.1,4.1,0,0,1,5.76,0A4.75,4.75,0,0,1,85.68,156.05Zm-6.53,0a4,4,0,0,0,.66,2.5,2.6,2.6,0,0,0,3.86,0,4,4,0,0,0,.66-2.5,4,4,0,0,0-.66-2.48,2.31,2.31,0,0,0-2-.85,2.28,2.28,0,0,0-1.92.84A4,4,0,0,0,79.15,156.05Z"/><path class="cls-2" d="M97.94,159.19h-.08a3,3,0,0,1-2.68,1.3,3.21,3.21,0,0,1-2.62-1.14,6.22,6.22,0,0,1,0-6.56,3.14,3.14,0,0,1,2.61-1.17,3.1,3.1,0,0,1,2.67,1.27H98l0-.62,0-.6v-3.49h1.3v12.16h-1Zm-2.6.22a2.37,2.37,0,0,0,1.93-.72,3.67,3.67,0,0,0,.59-2.34v-.27a4.35,4.35,0,0,0-.6-2.6,2.29,2.29,0,0,0-1.93-.77,2,2,0,0,0-1.75.88A4.45,4.45,0,0,0,93,156.1a4.13,4.13,0,0,0,.61,2.47A2,2,0,0,0,95.34,159.41Z"/><path class="cls-2" d="M105.53,160.49a3.93,3.93,0,0,1-3-1.15,4.48,4.48,0,0,1-1.09-3.21,5,5,0,0,1,1-3.29,3.41,3.41,0,0,1,2.74-1.22,3.22,3.22,0,0,1,2.55,1.06,4.06,4.06,0,0,1,.94,2.79v.82h-5.9a3.42,3.42,0,0,0,.76,2.29,2.64,2.64,0,0,0,2,.78,6.8,6.8,0,0,0,2.73-.58v1.16a7,7,0,0,1-1.3.43A7.83,7.83,0,0,1,105.53,160.49Zm-.35-7.78a2.12,2.12,0,0,0-1.65.67,3.06,3.06,0,0,0-.72,1.86h4.48a2.87,2.87,0,0,0-.55-1.88A1.91,1.91,0,0,0,105.18,152.71Z"/><path class="cls-2" d="M114.94,149.46a.9.9,0,0,1,.21-.66.81.81,0,0,1,.55-.2.76.76,0,0,1,.54.21.84.84,0,0,1,.23.65.87.87,0,0,1-.23.65.81.81,0,0,1-1.09,0A.91.91,0,0,1,114.94,149.46Zm1.4,10.88H115v-8.56h1.3Z"/><path class="cls-2" d="M125,160.34V154.8a2.21,2.21,0,0,0-.48-1.56,1.9,1.9,0,0,0-1.49-.52,2.46,2.46,0,0,0-2,.73,3.7,3.7,0,0,0-.62,2.4v4.49h-1.3v-8.56h1.06l.21,1.17h.06a2.68,2.68,0,0,1,1.12-1,3.65,3.65,0,0,1,1.6-.35,3.25,3.25,0,0,1,2.33.75,3.16,3.16,0,0,1,.78,2.38v5.59Z"/><path class="cls-2" d="M131.68,159.42a3.53,3.53,0,0,0,.66,0,5.12,5.12,0,0,0,.51-.1v1a2.53,2.53,0,0,1-.62.17,5.23,5.23,0,0,1-.74.06c-1.66,0-2.48-.87-2.48-2.61v-5.1h-1.23v-.62l1.23-.54.54-1.83h.75v2h2.49v1H130.3v5a1.71,1.71,0,0,0,.37,1.19A1.26,1.26,0,0,0,131.68,159.42Z"/><path class="cls-2" d="M142,156.05a4.76,4.76,0,0,1-1,3.27,3.75,3.75,0,0,1-2.92,1.17,4,4,0,0,1-2-.53,3.57,3.57,0,0,1-1.37-1.55,5.29,5.29,0,0,1-.49-2.36,4.7,4.7,0,0,1,1-3.26,3.71,3.71,0,0,1,2.91-1.17,3.63,3.63,0,0,1,2.85,1.19A4.7,4.7,0,0,1,142,156.05Zm-6.52,0a4.12,4.12,0,0,0,.65,2.5,2.61,2.61,0,0,0,3.87,0,4,4,0,0,0,.66-2.5,4,4,0,0,0-.66-2.48,2.31,2.31,0,0,0-1.95-.85,2.27,2.27,0,0,0-1.92.84A3.94,3.94,0,0,0,135.43,156.05Z"/><path class="cls-2" d="M145.52,160.34h-1.3V148.18h1.3Z"/><path class="cls-2" d="M151.89,160.49a3.93,3.93,0,0,1-3-1.15,4.48,4.48,0,0,1-1.1-3.21,5,5,0,0,1,1-3.29,3.41,3.41,0,0,1,2.74-1.22,3.22,3.22,0,0,1,2.55,1.06,4.06,4.06,0,0,1,.94,2.79v.82h-5.9a3.36,3.36,0,0,0,.76,2.29,2.64,2.64,0,0,0,2,.78,6.8,6.8,0,0,0,2.73-.58v1.16a7,7,0,0,1-1.3.43A7.83,7.83,0,0,1,151.89,160.49Zm-.35-7.78a2.12,2.12,0,0,0-1.65.67,3.06,3.06,0,0,0-.72,1.86h4.48a2.87,2.87,0,0,0-.55-1.88A1.92,1.92,0,0,0,151.54,152.71Z"/><path class="cls-2" d="M161.15,151.62a5.34,5.34,0,0,1,1,.09l-.18,1.21a4.39,4.39,0,0,0-.94-.12,2.29,2.29,0,0,0-1.78.84,3.11,3.11,0,0,0-.74,2.1v4.6h-1.29v-8.56h1.07l.15,1.58h.06a3.73,3.73,0,0,1,1.15-1.29A2.6,2.6,0,0,1,161.15,151.62Z"/><path class="cls-2" d="M169,160.34l-.25-1.22h-.07a3.53,3.53,0,0,1-1.27,1.09,3.94,3.94,0,0,1-1.59.28,2.85,2.85,0,0,1-2-.65,2.4,2.4,0,0,1-.72-1.87c0-1.73,1.38-2.63,4.15-2.72l1.45,0v-.54a2.15,2.15,0,0,0-.43-1.48,1.79,1.79,0,0,0-1.39-.48,5.6,5.6,0,0,0-2.42.65l-.4-1a6.16,6.16,0,0,1,2.9-.73,3.29,3.29,0,0,1,2.27.67,2.86,2.86,0,0,1,.74,2.18v5.85Zm-2.93-.92a2.66,2.66,0,0,0,1.91-.66,2.45,2.45,0,0,0,.69-1.86v-.77l-1.3.05a4.83,4.83,0,0,0-2.23.48,1.47,1.47,0,0,0-.68,1.33,1.35,1.35,0,0,0,.42,1.07A1.8,1.8,0,0,0,166.11,159.42Z"/><path class="cls-2" d="M178.54,160.34V154.8a2.21,2.21,0,0,0-.48-1.56,1.93,1.93,0,0,0-1.49-.52,2.45,2.45,0,0,0-2,.73,3.63,3.63,0,0,0-.63,2.4v4.49h-1.29v-8.56h1l.21,1.17H174a2.59,2.59,0,0,1,1.11-1,3.68,3.68,0,0,1,1.6-.35,3.23,3.23,0,0,1,2.33.75,3.16,3.16,0,0,1,.78,2.38v5.59Z"/><path class="cls-2" d="M185.92,160.49a3.66,3.66,0,0,1-2.88-1.14,4.7,4.7,0,0,1-1-3.24,4.86,4.86,0,0,1,1-3.32,3.73,3.73,0,0,1,2.95-1.17,5.71,5.71,0,0,1,1.23.13,4.26,4.26,0,0,1,1,.31l-.4,1.11a6.1,6.1,0,0,0-.94-.29,4.57,4.57,0,0,0-.9-.11q-2.61,0-2.61,3.33a4,4,0,0,0,.64,2.42,2.24,2.24,0,0,0,1.89.84,5.7,5.7,0,0,0,2.19-.46v1.15A4.62,4.62,0,0,1,185.92,160.49Z"/><path class="cls-2" d="M190,149.46a.9.9,0,0,1,.21-.66.81.81,0,0,1,.55-.2.76.76,0,0,1,.54.21.84.84,0,0,1,.23.65.87.87,0,0,1-.23.65.81.81,0,0,1-1.09,0A.91.91,0,0,1,190,149.46Zm1.4,10.88h-1.3v-8.56h1.3Z"/><path class="cls-2" d="M199.43,160.34l-.26-1.22h-.06a3.63,3.63,0,0,1-1.28,1.09,3.9,3.9,0,0,1-1.59.28,2.87,2.87,0,0,1-2-.65,2.4,2.4,0,0,1-.72-1.87c0-1.73,1.38-2.63,4.15-2.72l1.45,0v-.54a2.15,2.15,0,0,0-.43-1.48,1.79,1.79,0,0,0-1.39-.48,5.6,5.6,0,0,0-2.42.65l-.4-1a6.09,6.09,0,0,1,1.39-.54,6,6,0,0,1,1.51-.19,3.28,3.28,0,0,1,2.27.67,2.86,2.86,0,0,1,.74,2.18v5.85Zm-2.93-.92a2.63,2.63,0,0,0,1.9-.66,2.45,2.45,0,0,0,.69-1.86v-.77l-1.3.05a4.83,4.83,0,0,0-2.23.48,1.47,1.47,0,0,0-.68,1.33,1.32,1.32,0,0,0,.43,1.07A1.78,1.78,0,0,0,196.5,159.42Z"/><path class="cls-2" d="M208.44,151.78v5.55a2.21,2.21,0,0,0,.47,1.56,1.93,1.93,0,0,0,1.49.52,2.45,2.45,0,0,0,2-.74,3.68,3.68,0,0,0,.62-2.39v-4.5h1.3v8.56h-1.07l-.19-1.15H213a2.62,2.62,0,0,1-1.11,1,3.77,3.77,0,0,1-1.61.33,3.26,3.26,0,0,1-2.34-.74,3.13,3.13,0,0,1-.78-2.37v-5.6Z"/><path class="cls-2" d="M222.56,158a2.17,2.17,0,0,1-.89,1.85,4.2,4.2,0,0,1-2.5.64,5.57,5.57,0,0,1-2.66-.53v-1.21a6.38,6.38,0,0,0,1.33.49,5.47,5.47,0,0,0,1.36.18,3,3,0,0,0,1.56-.32,1.07,1.07,0,0,0,.55-1,1.05,1.05,0,0,0-.43-.85,6.77,6.77,0,0,0-1.69-.84,9.16,9.16,0,0,1-1.7-.78,2.23,2.23,0,0,1-.75-.75,1.94,1.94,0,0,1-.25-1,1.9,1.9,0,0,1,.85-1.65,3.94,3.94,0,0,1,2.34-.61,6.91,6.91,0,0,1,2.7.56l-.46,1.06a6.1,6.1,0,0,0-2.34-.53,2.75,2.75,0,0,0-1.39.28.91.91,0,0,0-.47.8,1,1,0,0,0,.18.59,1.87,1.87,0,0,0,.57.46,14.73,14.73,0,0,0,1.5.63,5.47,5.47,0,0,1,2.05,1.12A2,2,0,0,1,222.56,158Z"/><path class="cls-2" d="M229.94,160.34l-.26-1.22h-.07a3.53,3.53,0,0,1-1.27,1.09,3.94,3.94,0,0,1-1.59.28,2.85,2.85,0,0,1-2-.65A2.4,2.4,0,0,1,224,158c0-1.73,1.38-2.63,4.15-2.72l1.45,0v-.54a2.15,2.15,0,0,0-.43-1.48,1.79,1.79,0,0,0-1.39-.48,5.6,5.6,0,0,0-2.42.65l-.4-1a6.16,6.16,0,0,1,2.9-.73,3.28,3.28,0,0,1,2.27.67,2.86,2.86,0,0,1,.74,2.18v5.85Zm-2.93-.92a2.65,2.65,0,0,0,1.9-.66,2.45,2.45,0,0,0,.69-1.86v-.77l-1.3.05a4.83,4.83,0,0,0-2.23.48,1.47,1.47,0,0,0-.68,1.33,1.35,1.35,0,0,0,.42,1.07A1.81,1.81,0,0,0,227,159.42Z"/><path class="cls-2" d="M237.47,151.62a5.34,5.34,0,0,1,1,.09l-.18,1.21a4.39,4.39,0,0,0-.94-.12,2.31,2.31,0,0,0-1.78.84,3.11,3.11,0,0,0-.74,2.1v4.6h-1.29v-8.56h1.07l.15,1.58h.06a3.73,3.73,0,0,1,1.15-1.29A2.6,2.6,0,0,1,237.47,151.62Z"/><path class="cls-2" d="M250.08,159.19H250a3,3,0,0,1-2.68,1.3,3.2,3.2,0,0,1-2.62-1.14,6.22,6.22,0,0,1,0-6.56,3.14,3.14,0,0,1,2.61-1.17,3.1,3.1,0,0,1,2.67,1.27h.1l-.06-.62,0-.6v-3.49h1.3v12.16h-1.05Zm-2.59.22a2.37,2.37,0,0,0,1.93-.72,3.74,3.74,0,0,0,.59-2.34v-.27a4.35,4.35,0,0,0-.6-2.6,2.31,2.31,0,0,0-1.94-.77,2,2,0,0,0-1.74.88,4.37,4.37,0,0,0-.61,2.51,4.2,4.2,0,0,0,.6,2.47A2,2,0,0,0,247.49,159.41Z"/><path class="cls-2" d="M257.68,160.49a3.93,3.93,0,0,1-3-1.15,4.48,4.48,0,0,1-1.1-3.21,5,5,0,0,1,1-3.29,3.41,3.41,0,0,1,2.74-1.22,3.23,3.23,0,0,1,2.55,1.06,4.06,4.06,0,0,1,.94,2.79v.82h-5.9a3.36,3.36,0,0,0,.76,2.29,2.63,2.63,0,0,0,2,.78,6.81,6.81,0,0,0,2.74-.58v1.16a7,7,0,0,1-1.3.43A7.83,7.83,0,0,1,257.68,160.49Zm-.35-7.78a2.12,2.12,0,0,0-1.65.67,3.06,3.06,0,0,0-.72,1.86h4.48a2.87,2.87,0,0,0-.55-1.88A1.92,1.92,0,0,0,257.33,152.71Z"/><path class="cls-2" d="M268.49,160.34h-1.3V148.18h1.3Z"/><path class="cls-2" d="M271.13,149.46a.86.86,0,0,1,.22-.66.79.79,0,0,1,.55-.2.8.8,0,0,1,.54.21.84.84,0,0,1,.22.65.87.87,0,0,1-.22.65.8.8,0,0,1-.54.21.75.75,0,0,1-.55-.21A.87.87,0,0,1,271.13,149.46Zm1.41,10.88h-1.3v-8.56h1.3Z"/><path class="cls-2" d="M279.27,151.64a3.16,3.16,0,0,1,2.62,1.15,6.13,6.13,0,0,1,0,6.54,3.14,3.14,0,0,1-2.61,1.16,3.8,3.8,0,0,1-1.53-.3,3,3,0,0,1-1.16-.95h-.09l-.27,1.1h-.93V148.18h1.29v3c0,.66,0,1.25-.06,1.78h.06A3.07,3.07,0,0,1,279.27,151.64Zm-.19,1.08a2.28,2.28,0,0,0-1.91.76,4.32,4.32,0,0,0-.59,2.57,4.22,4.22,0,0,0,.61,2.58,2.27,2.27,0,0,0,1.92.78,2,2,0,0,0,1.79-.87,4.5,4.5,0,0,0,.58-2.51,4.32,4.32,0,0,0-.58-2.49A2.08,2.08,0,0,0,279.08,152.72Z"/><path class="cls-2" d="M288.71,160.49a3.93,3.93,0,0,1-3-1.15,4.48,4.48,0,0,1-1.1-3.21,5,5,0,0,1,1-3.29,3.41,3.41,0,0,1,2.74-1.22,3.22,3.22,0,0,1,2.55,1.06,4.06,4.06,0,0,1,.94,2.79v.82H286a3.36,3.36,0,0,0,.76,2.29,2.64,2.64,0,0,0,2,.78,6.8,6.8,0,0,0,2.73-.58v1.16a7,7,0,0,1-1.3.43A7.83,7.83,0,0,1,288.71,160.49Zm-.35-7.78a2.12,2.12,0,0,0-1.65.67,3.06,3.06,0,0,0-.72,1.86h4.48a2.87,2.87,0,0,0-.55-1.88A1.91,1.91,0,0,0,288.36,152.71Z"/><path class="cls-2" d="M298,151.62a5.34,5.34,0,0,1,1,.09l-.18,1.21a4.39,4.39,0,0,0-.94-.12,2.31,2.31,0,0,0-1.78.84,3.11,3.11,0,0,0-.74,2.1v4.6h-1.29v-8.56h1.07l.15,1.58h.06a3.73,3.73,0,0,1,1.15-1.29A2.6,2.6,0,0,1,298,151.62Z"/><path class="cls-2" d="M305.86,160.34l-.25-1.22h-.07a3.53,3.53,0,0,1-1.27,1.09,3.94,3.94,0,0,1-1.59.28,2.85,2.85,0,0,1-2-.65A2.4,2.4,0,0,1,300,158c0-1.73,1.38-2.63,4.15-2.72l1.45,0v-.54a2.15,2.15,0,0,0-.43-1.48,1.79,1.79,0,0,0-1.39-.48,5.6,5.6,0,0,0-2.42.65l-.4-1a6.16,6.16,0,0,1,2.9-.73,3.28,3.28,0,0,1,2.27.67,2.86,2.86,0,0,1,.74,2.18v5.85Zm-2.92-.92a2.65,2.65,0,0,0,1.9-.66,2.45,2.45,0,0,0,.69-1.86v-.77l-1.3.05a4.83,4.83,0,0,0-2.23.48,1.47,1.47,0,0,0-.68,1.33,1.35,1.35,0,0,0,.42,1.07A1.81,1.81,0,0,0,302.94,159.42Z"/><path class="cls-2" d="M312.92,160.49a3.66,3.66,0,0,1-2.88-1.14,4.7,4.7,0,0,1-1-3.24,4.86,4.86,0,0,1,1-3.32,3.73,3.73,0,0,1,2.95-1.17,5.71,5.71,0,0,1,1.23.13,4.26,4.26,0,0,1,1,.31l-.4,1.11a6.1,6.1,0,0,0-.94-.29,4.57,4.57,0,0,0-.9-.11q-2.61,0-2.61,3.33a4,4,0,0,0,.64,2.42,2.24,2.24,0,0,0,1.89.84,5.7,5.7,0,0,0,2.19-.46v1.15A4.62,4.62,0,0,1,312.92,160.49Z"/><path class="cls-2" d="M317,149.46a.9.9,0,0,1,.21-.66.81.81,0,0,1,.55-.2.76.76,0,0,1,.54.21.84.84,0,0,1,.23.65.87.87,0,0,1-.23.65.81.81,0,0,1-1.09,0A.91.91,0,0,1,317,149.46Zm1.4,10.88h-1.3v-8.56h1.3Z"/><path class="cls-2" d="M328.55,156.05a4.76,4.76,0,0,1-1.05,3.27,3.75,3.75,0,0,1-2.92,1.17,4,4,0,0,1-2-.53,3.57,3.57,0,0,1-1.37-1.55,5.43,5.43,0,0,1-.48-2.36,4.69,4.69,0,0,1,1-3.26,3.71,3.71,0,0,1,2.91-1.17,3.62,3.62,0,0,1,2.85,1.19A4.7,4.7,0,0,1,328.55,156.05Zm-6.52,0a4,4,0,0,0,.66,2.5,2.27,2.27,0,0,0,1.92.86,2.31,2.31,0,0,0,1.94-.86,4,4,0,0,0,.66-2.5,4,4,0,0,0-.66-2.48,2.31,2.31,0,0,0-1.95-.85,2.27,2.27,0,0,0-1.92.84A3.94,3.94,0,0,0,322,156.05Zm1.5-5.6q.38-.49.81-1.17c.29-.46.51-.86.68-1.2h1.58v.16a11.33,11.33,0,0,1-1,1.25,12.08,12.08,0,0,1-1.18,1.15h-.87Z"/><path class="cls-2" d="M336.69,160.34V154.8a2.21,2.21,0,0,0-.48-1.56,1.93,1.93,0,0,0-1.49-.52,2.43,2.43,0,0,0-2,.73,3.63,3.63,0,0,0-.63,2.4v4.49h-1.29v-8.56h1.05l.21,1.17h.06a2.68,2.68,0,0,1,1.12-1,3.65,3.65,0,0,1,1.6-.35,3.25,3.25,0,0,1,2.33.75,3.16,3.16,0,0,1,.78,2.38v5.59Z"/><path class="cls-2" d="M35.25,183.49a3.8,3.8,0,0,1-1.53-.3,3,3,0,0,1-1.16-.95h-.09a11.9,11.9,0,0,1,.09,1.42v3.52h-1.3v-12.4h1.06L32.5,176h.06a3,3,0,0,1,1.16-1,3.54,3.54,0,0,1,1.53-.31,3.19,3.19,0,0,1,2.63,1.16,5.19,5.19,0,0,1,.92,3.27,5.08,5.08,0,0,1-.94,3.28A3.16,3.16,0,0,1,35.25,183.49Zm-.19-7.77a2.29,2.29,0,0,0-1.9.73,3.72,3.72,0,0,0-.6,2.31v.29a4.3,4.3,0,0,0,.6,2.58,2.29,2.29,0,0,0,1.93.78,2,2,0,0,0,1.74-.9,4.25,4.25,0,0,0,.63-2.48,4.09,4.09,0,0,0-.63-2.45A2.08,2.08,0,0,0,35.06,175.72Z"/><path class="cls-2" d="M45,174.62a5.34,5.34,0,0,1,1,.09l-.18,1.21a4.39,4.39,0,0,0-.94-.12,2.31,2.31,0,0,0-1.78.84,3.11,3.11,0,0,0-.74,2.1v4.6H41.07v-8.56h1.07l.15,1.58h.06a3.73,3.73,0,0,1,1.15-1.29A2.6,2.6,0,0,1,45,174.62Z"/><path class="cls-2" d="M55,179.05a4.76,4.76,0,0,1-1.05,3.27A3.75,3.75,0,0,1,51,183.49a4,4,0,0,1-2-.53,3.57,3.57,0,0,1-1.37-1.55,5.29,5.29,0,0,1-.49-2.36,4.7,4.7,0,0,1,1.05-3.26,3.71,3.71,0,0,1,2.91-1.17,3.63,3.63,0,0,1,2.85,1.19A4.7,4.7,0,0,1,55,179.05Zm-6.52,0a4.12,4.12,0,0,0,.65,2.5,2.61,2.61,0,0,0,3.87,0,4,4,0,0,0,.66-2.5,4,4,0,0,0-.66-2.48,2.65,2.65,0,0,0-3.88,0A4,4,0,0,0,48.47,179.05Z"/><path class="cls-2" d="M58.56,183.34h-1.3V171.18h1.3Z"/><path class="cls-2" d="M68.7,179.05a4.76,4.76,0,0,1-1,3.27,3.75,3.75,0,0,1-2.92,1.17,4,4,0,0,1-2-.53,3.57,3.57,0,0,1-1.37-1.55,5.29,5.29,0,0,1-.49-2.36,4.7,4.7,0,0,1,1.05-3.26,3.71,3.71,0,0,1,2.91-1.17,3.63,3.63,0,0,1,2.85,1.19A4.7,4.7,0,0,1,68.7,179.05Zm-6.52,0a4.12,4.12,0,0,0,.65,2.5,2.61,2.61,0,0,0,3.87,0,4,4,0,0,0,.66-2.5,4,4,0,0,0-.66-2.48,2.31,2.31,0,0,0-2-.85,2.27,2.27,0,0,0-1.92.84A3.94,3.94,0,0,0,62.18,179.05Z"/><path class="cls-2" d="M76.83,183.34V177.8a2.26,2.26,0,0,0-.47-1.56,1.94,1.94,0,0,0-1.5-.52,2.42,2.42,0,0,0-2,.73,3.63,3.63,0,0,0-.63,2.4v4.49H71v-8.56H72l.21,1.17h.06a2.68,2.68,0,0,1,1.12-1,3.65,3.65,0,0,1,1.6-.35,3.25,3.25,0,0,1,2.33.75,3.16,3.16,0,0,1,.78,2.38v5.59Z"/><path class="cls-2" d="M87.8,174.78v.82l-1.58.18a3.19,3.19,0,0,1,.39.72,2.78,2.78,0,0,1,.17,1,2.54,2.54,0,0,1-.86,2,3.46,3.46,0,0,1-2.36.75,4.11,4.11,0,0,1-.72-.06,1.28,1.28,0,0,0-.83,1.1.56.56,0,0,0,.29.52,2.14,2.14,0,0,0,1,.17h1.52a3.41,3.41,0,0,1,2.14.58,2.07,2.07,0,0,1,.74,1.71,2.44,2.44,0,0,1-1.14,2.17,6.18,6.18,0,0,1-3.33.74,4.61,4.61,0,0,1-2.59-.62,2,2,0,0,1-.91-1.77,2,2,0,0,1,.5-1.35,2.56,2.56,0,0,1,1.41-.77,1.43,1.43,0,0,1-.55-.46,1.21,1.21,0,0,1-.22-.73,1.35,1.35,0,0,1,.25-.82,2.49,2.49,0,0,1,.79-.68,2.28,2.28,0,0,1-1.09-.93,2.81,2.81,0,0,1-.41-1.5,2.78,2.78,0,0,1,.84-2.17,3.43,3.43,0,0,1,2.39-.76,4.12,4.12,0,0,1,1.21.16Zm-6.83,10a1.16,1.16,0,0,0,.59,1.05,3.23,3.23,0,0,0,1.68.36,4.66,4.66,0,0,0,2.42-.49,1.48,1.48,0,0,0,.78-1.32,1,1,0,0,0-.43-1,3.29,3.29,0,0,0-1.61-.27H82.84a2,2,0,0,0-1.37.42A1.53,1.53,0,0,0,81,184.78Zm.71-7.26a1.74,1.74,0,0,0,.51,1.36,2,2,0,0,0,1.41.46,1.66,1.66,0,0,0,1.9-1.85,1.7,1.7,0,0,0-1.92-1.93,1.91,1.91,0,0,0-1.41.5A2,2,0,0,0,81.68,177.52Z"/><path class="cls-2" d="M94.83,183.34l-.26-1.22h-.06a3.63,3.63,0,0,1-1.28,1.09,3.94,3.94,0,0,1-1.59.28,2.85,2.85,0,0,1-2-.65,2.4,2.4,0,0,1-.72-1.87c0-1.73,1.38-2.63,4.15-2.72l1.45,0v-.54a2.15,2.15,0,0,0-.43-1.48,1.79,1.79,0,0,0-1.39-.48,5.6,5.6,0,0,0-2.42.65l-.4-1a6.16,6.16,0,0,1,2.9-.73,3.28,3.28,0,0,1,2.27.67,2.86,2.86,0,0,1,.74,2.18v5.85Zm-2.93-.92a2.65,2.65,0,0,0,1.9-.66,2.45,2.45,0,0,0,.69-1.86v-.77l-1.3.05a4.83,4.83,0,0,0-2.23.48,1.47,1.47,0,0,0-.68,1.33,1.35,1.35,0,0,0,.42,1.07A1.83,1.83,0,0,0,91.9,182.42Z"/><path class="cls-2" d="M104.29,182.19h-.07a3.05,3.05,0,0,1-2.69,1.3,3.18,3.18,0,0,1-2.61-1.14,5,5,0,0,1-.94-3.27,5.11,5.11,0,0,1,.94-3.29,3.14,3.14,0,0,1,2.61-1.17,3.1,3.1,0,0,1,2.67,1.27h.1l0-.62,0-.6v-3.49h1.29v12.16h-1.05Zm-2.6.22a2.37,2.37,0,0,0,1.93-.72,3.67,3.67,0,0,0,.6-2.34v-.27a4.34,4.34,0,0,0-.61-2.6,2.29,2.29,0,0,0-1.93-.77,2,2,0,0,0-1.75.88,4.46,4.46,0,0,0-.6,2.51,4.2,4.2,0,0,0,.6,2.47A2,2,0,0,0,101.69,182.41Z"/><path class="cls-2" d="M113.53,183.34l-.26-1.22h-.06a3.55,3.55,0,0,1-1.28,1.09,3.87,3.87,0,0,1-1.59.28,2.82,2.82,0,0,1-2-.65,2.38,2.38,0,0,1-.73-1.87c0-1.73,1.39-2.63,4.15-2.72l1.45,0v-.54a2.15,2.15,0,0,0-.43-1.48,1.79,1.79,0,0,0-1.39-.48,5.6,5.6,0,0,0-2.42.65l-.4-1a6.27,6.27,0,0,1,1.39-.54,6,6,0,0,1,1.51-.19,3.28,3.28,0,0,1,2.27.67,2.86,2.86,0,0,1,.74,2.18v5.85Zm-2.93-.92a2.63,2.63,0,0,0,1.9-.66,2.45,2.45,0,0,0,.69-1.86v-.77l-1.29.05a4.76,4.76,0,0,0-2.23.48A1.46,1.46,0,0,0,109,181a1.32,1.32,0,0,0,.43,1.07A1.78,1.78,0,0,0,110.6,182.42Z"/><path class="cls-3" d="M521.71,62.09a17.63,17.63,0,0,0-24.08-6.43l-20.73,12-.07,0-5.53,3.2-6.89,4-.19.11a17.65,17.65,0,0,0,17.63,30.58L480,106.58l7.06-4.07,1.54-.89.34-.19.78-.45,2.16-1.25,23.4-13.49a17.41,17.41,0,0,0,6.63-6.83h0A17.64,17.64,0,0,0,521.71,62.09Zm-9.64.08-.16.07.07,0ZM472.72,87.3a3.58,3.58,0,0,1,.3-3.82,3.58,3.58,0,0,0-.3,3.82,3.62,3.62,0,0,0,3.5,1.88A3.62,3.62,0,0,1,472.72,87.3ZM494.92,98l-2.44,1.41L494.92,98a14.42,14.42,0,0,0,3.64-2.91A14.42,14.42,0,0,1,494.92,98Zm4-20.62h0l-16.46,8.81,16.46-8.82,16.31-8.74.06,0-.06,0Zm17-9.21a1.79,1.79,0,0,1-.28.2A1.79,1.79,0,0,0,515.9,68.14Zm.37-.35.08-.09Z"/><g id="Grupo_741" data-name="Grupo 741"><g id="Grupo_737" data-name="Grupo 737"><path id="Trazado_924" data-name="Trazado 924" class="cls-4" d="M519.9,73.41a17.41,17.41,0,0,1-6.63,6.83L478,100.58h0l7.06-4.07,1.88-1.08h0l.78-.45,5.21-3c7.88-4.55,8-12.69,4-20.62l16.31-8.74A3.59,3.59,0,0,0,510,56.2l-.16.09-16.93,9.07c-4.81-5.39-11.28-7.6-18.05-3.7l20.79-12A17.63,17.63,0,0,1,519.9,73.41Z"/><path id="Trazado_925" data-name="Trazado 925" class="cls-5" d="M492.89,65.36l-20.7,11.09a3.6,3.6,0,0,0-1.47,4.85h0a3.6,3.6,0,0,0,4.86,1.47L496.9,71.35c4,7.93,3.91,16.07-4,20.62l-5.21,3-.78.45-7.08,4.08A17.71,17.71,0,0,1,455.75,93h0a17.69,17.69,0,0,1,6.47-24.1h0l.19-.11,6.89-4,5.53-3.2h0C481.61,57.75,488.08,60,492.89,65.36Z"/><path id="Trazado_926" data-name="Trazado 926" class="cls-2" d="M475.58,82.77a3.61,3.61,0,0,1-4.86-1.47h0a3.61,3.61,0,0,1,1.48-4.86l20.69-11.08,16.93-9.08a3.59,3.59,0,0,1,3.62,6.2l-.23.12L496.9,71.34Z"/></g></g></g></g></svg>